<?xml version="1.0" encoding="UTF-8"?>
<svg width="138px" height="140px" viewBox="0 0 138 140" version="1.1" xmlns="http://www.w3.org/2000/svg" xmlns:xlink="http://www.w3.org/1999/xlink">
    <!-- Generator: Sketch 50.2 (55047) - http://www.bohemiancoding.com/sketch -->
    <title>Group 2</title>
    <desc>Created with Sketch.</desc>
    <defs></defs>
    <g id="Customer" stroke="none" stroke-width="1" fill="none" fill-rule="evenodd">
        <g id="A2" transform="translate(-651.000000, -174.000000)" fill="#07C9C6">
            <g id="Group-2" transform="translate(651.000000, 174.000000)">
                <path d="M71.9411255,108.941125 C66.3390595,108.941125 62.9411255,90.592282 62.9411255,66.9411255 C62.9411255,43.289969 66.3390595,24.9411255 71.9411255,24.9411255 C77.5431915,24.9411255 80.9411255,43.289969 80.9411255,66.9411255 C80.9411255,90.592282 77.5431915,108.941125 71.9411255,108.941125 Z M71.9411255,105.941125 C72.8059882,105.941125 74.5286087,102.006648 75.7695033,95.3058162 C77.148886,87.8571501 77.9411255,77.7426012 77.9411255,66.9411255 C77.9411255,56.1396498 77.148886,46.0251009 75.7695033,38.5764347 C74.5286087,31.8756035 72.8059882,27.9411255 71.9411255,27.9411255 C71.0762628,27.9411255 69.3536423,31.8756035 68.1127476,38.5764347 C66.733365,46.0251009 65.9411255,56.1396498 65.9411255,66.9411255 C65.9411255,77.7426012 66.733365,87.8571501 68.1127476,95.3058162 C69.3536423,102.006648 71.0762628,105.941125 71.9411255,105.941125 Z" id="Oval" fill-rule="nonzero" transform="translate(71.941125, 66.941125) rotate(-45.000000) translate(-71.941125, -66.941125) "></path>
                <path d="M96.5,96 C97.2639708,95.6796251 97.5629167,96.1559391 97.8832916,96.91991 C98.2036664,97.6838808 100.763971,97.1796251 100,97.5 L0.73471571,139.28619 L41.1123786,40.9303449 C41.4269904,40.1639828 42.303293,39.7977668 43.0696551,40.1123786 C43.8360172,40.4269904 44.2022332,41.303293 43.8876214,42.0696551 L6.26528429,133.71381 L96.5,96 Z" id="Line-2" fill-rule="nonzero"></path>
                <path d="M18.7868959,98.8822575 L21.2131041,97.1177425 C26.8248874,104.833945 28.2150118,115.259877 25.4678247,128.309016 L22.5321753,127.690984 C25.1183216,115.40679 23.8417792,105.832722 18.7868959,98.8822575 Z" id="Path-3" fill-rule="nonzero"></path>
                <path d="M77.8286968,83.9370426 L80,83 C82.3246096,85.905762 82.7027649,89.0383775 81.3397042,93.9118606 C80.6421464,96.4059065 79.5514431,99.035877 78.1747262,101.720475 C77.313649,103.399575 76.3924477,104.999395 75.4707522,106.468987 C75.1475446,106.984324 74.8468857,107.447261 74.5762377,107.8513 C74.4117582,108.096845 74.2923397,108.270267 74.2254518,108.365025 L71.7745482,106.634975 C71.8276603,106.559733 71.9332418,106.406405 72.0837623,106.1817 C72.3381143,105.801989 72.6224554,105.364176 72.9292478,104.875013 C73.8075523,103.474605 74.686351,101.948425 75.5052738,100.351525 C76.7970083,97.8326427 77.8134985,95.3816193 78.4505791,93.1038034 C79.5799786,89.0657521 79.4204275,85.926706 77.8286968,83.9370426 Z" id="Path-3-Copy-3" fill-rule="nonzero"></path>
                <path d="M53.2868959,59.3822575 L55.5,58.5 C64.5,69 62.5,111 53.2868959,117 L51.6129545,115.290393 C58.7031192,110.090938 60.5451173,69.3623121 53.2868959,59.3822575 Z" id="Path-3-Copy-2" fill-rule="nonzero"></path>
                <path d="M30.1679497,72.2480754 L31.8320503,69.7519246 C36.6318431,72.9517864 41.2179737,83.3696634 43.2887151,94.858938 C45.5508594,107.41019 44.3269964,118.052477 38.9761871,122.638885 L37.0238129,120.361115 C41.3084037,116.688609 42.4249308,106.979678 40.3362849,95.391062 C38.3987466,84.6408495 34.0960415,74.8668033 30.1679497,72.2480754 Z" id="Path-3-Copy" fill-rule="nonzero"></path>
                <path d="M34.8172727,62.61281 C33.9265423,61.9596077 33.7339877,60.708003 34.38719,59.8172727 C35.0403923,58.9265423 36.291997,58.7339877 37.1827273,59.38719 C42.5057856,63.290766 45.9397264,67.6283755 47.411558,72.4118283 C47.7363963,73.4675526 47.143896,74.5867198 46.0881717,74.911558 C45.0324474,75.2363963 43.9132802,74.643896 43.588442,73.5881717 C42.3936069,69.7049578 39.4942144,66.0425673 34.8172727,62.61281 Z" id="Path-4" fill-rule="nonzero"></path>
                <circle id="Oval-2" cx="47.5" cy="79.5" r="2.5"></circle>
                <path d="M76.631236,3.11358386 C76.292363,2.35763638 76.6304687,1.47010902 77.3864161,1.13123601 C78.1423636,0.792363007 79.029891,1.13046867 79.368764,1.88641614 C81.7850841,7.27666868 80.6153121,15.2830931 76.7473052,25.3166447 C75.2323492,29.2464179 73.3350267,33.3878048 71.1423122,37.6525339 C69.0887656,41.6465878 66.8901243,45.5315264 64.6912911,49.1559028 C63.9213877,50.4249485 63.2061077,51.5713148 62.5635898,52.5759332 C62.3381517,52.9284203 62.1377288,53.23828 61.9645896,53.5031247 C61.85983,53.6633717 61.7869023,53.7738101 61.7480754,53.8320503 C61.2885468,54.5213433 60.3572427,54.7076041 59.6679497,54.2480754 C58.9786567,53.7885468 58.7923959,52.8572427 59.2519246,52.1679497 C59.2858189,52.1171082 59.3537884,52.0141784 59.453557,51.861566 C59.6212982,51.6049783 59.8162966,51.303505 60.0362755,50.9595537 C60.6663778,49.9743479 61.3691602,48.8480114 62.126401,47.5998378 C64.2908369,44.0321591 66.4554647,40.2073213 68.4743026,36.2807742 C70.6211685,32.1052184 72.4749644,28.0588393 73.9481057,24.237533 C77.5481248,14.8991376 78.6213998,7.55318009 76.631236,3.11358386 Z" id="Path-5" fill-rule="nonzero"></path>
                <path d="M110.531173,68.1659618 C111.30592,68.4593206 111.696161,69.325191 111.402803,70.0999375 C111.109444,70.874684 110.243573,71.2649258 109.468827,70.971567 C105.067878,69.3051415 97.1039429,72.0128793 85.815706,79.3275827 C85.1204799,79.7780847 84.1916836,79.5796966 83.7411816,78.8844704 C83.2906796,78.1892442 83.4890678,77.260448 84.184294,76.809946 C96.2293905,69.0048025 104.932122,66.0458736 110.531173,68.1659618 Z" id="Path-6" fill-rule="nonzero"></path>
                <path d="M128.268328,31.5241951 C129.083393,31.6723887 129.623998,32.4532636 129.475805,33.2683282 C129.327611,34.0833927 128.546736,34.6239984 127.731672,34.4758049 C120.869966,33.228222 112.929243,35.9280679 103.9,42.7 C103.237258,43.1970563 102.297056,43.0627417 101.8,42.4 C101.302944,41.7372583 101.437258,40.7970563 102.1,40.3 C111.737424,33.0719321 120.463367,30.1051113 128.268328,31.5241951 Z" id="Path-6-Copy" fill-rule="nonzero"></path>
                <circle id="Oval-4" cx="90.5" cy="24.5" r="2.5"></circle>
                <circle id="Oval-4-Copy" cx="135.5" cy="32.5" r="2.5"></circle>
                <circle id="Oval-4-Copy-2" cx="118.5" cy="82.5" r="2.5"></circle>
                <circle id="Oval-4-Copy-3" cx="127.5" cy="103.5" r="2.5"></circle>
                <circle id="Oval-4-Copy-4" cx="36.5" cy="7.5" r="2.5"></circle>
                <path d="M105.5,19 C100.253295,19 96,14.7467051 96,9.5 C96,4.25329488 100.253295,0 105.5,0 C110.746705,0 115,4.25329488 115,9.5 C115,14.7467051 110.746705,19 105.5,19 Z M105.5,15 C108.537566,15 111,12.5375661 111,9.5 C111,6.46243388 108.537566,4 105.5,4 C102.462434,4 100,6.46243388 100,9.5 C100,12.5375661 102.462434,15 105.5,15 Z" id="Oval-3" fill-rule="nonzero"></path>
                <path d="M121,63 C116.581722,63 113,59.418278 113,55 C113,50.581722 116.581722,47 121,47 C125.418278,47 129,50.581722 129,55 C129,59.418278 125.418278,63 121,63 Z M121,59 C123.209139,59 125,57.209139 125,55 C125,52.790861 123.209139,51 121,51 C118.790861,51 117,52.790861 117,55 C117,57.209139 118.790861,59 121,59 Z" id="Oval-3-Copy" fill-rule="nonzero"></path>
                <path d="M55,27 C50.581722,27 47,23.418278 47,19 C47,14.581722 50.581722,11 55,11 C59.418278,11 63,14.581722 63,19 C63,23.418278 59.418278,27 55,27 Z M55,23 C57.209139,23 59,21.209139 59,19 C59,16.790861 57.209139,15 55,15 C52.790861,15 51,16.790861 51,19 C51,21.209139 52.790861,23 55,23 Z" id="Oval-3-Copy-2" fill-rule="nonzero"></path>
                <path d="M87.8,49.8 L87.8,46.2 C87.8,45.5372583 88.3372583,45 89,45 C89.6627417,45 90.2,45.5372583 90.2,46.2 L90.2,49.8 L93.8,49.8 C94.4627417,49.8 95,50.3372583 95,51 C95,51.6627417 94.4627417,52.2 93.8,52.2 L90.2,52.2 L90.2,55.8 C90.2,56.4627417 89.6627417,57 89,57 C88.3372583,57 87.8,56.4627417 87.8,55.8 L87.8,52.2 L84.2,52.2 C83.5372583,52.2 83,51.6627417 83,51 C83,50.3372583 83.5372583,49.8 84.2,49.8 L87.8,49.8 Z" id="Combined-Shape" fill-rule="nonzero"></path>
            </g>
        </g>
    </g>
</svg>