<?xml version="1.0" encoding="UTF-8"?>
<svg width="20px" height="14px" viewBox="0 0 20 14" version="1.1" xmlns="http://www.w3.org/2000/svg" xmlns:xlink="http://www.w3.org/1999/xlink">
    <!-- Generator: Sketch 50.1 (55044) - http://www.bohemiancoding.com/sketch -->
    <title>ic_playlist_add_24px</title>
    <desc>Created with Sketch.</desc>
    <defs></defs>
    <g id="Customer" stroke="none" stroke-width="1" fill="none" fill-rule="evenodd">
        <g id="A0" transform="translate(-175.000000, -446.000000)">
            <g id="Group-2" transform="translate(166.000000, 166.000000)">
                <g id="ic_playlist_add_24px" transform="translate(7.000000, 274.000000)">
                    <g id="Group">
                        <polygon id="Shape" points="0 0 24 0 24 24 0 24"></polygon>
                        <path d="M14,10 L2,10 L2,12 L14,12 L14,10 L14,10 Z M14,6 L2,6 L2,8 L14,8 L14,6 L14,6 Z M18,14 L18,10 L16,10 L16,14 L12,14 L12,16 L16,16 L16,20 L18,20 L18,16 L22,16 L22,14 L18,14 L18,14 Z M2,16 L10,16 L10,14 L2,14 L2,16 L2,16 Z" id="Shape" fill="#000000"></path>
                    </g>
                </g>
            </g>
        </g>
    </g>
</svg>