<svg xmlns="http://www.w3.org/2000/svg" xmlns:xlink="http://www.w3.org/1999/xlink" width="195" height="30" viewBox="0 0 195 30">
    <defs>
        <path id="a" d="M0 .326h8.885v11.009H0z"/>
    </defs>
    <g fill="none" fill-rule="evenodd">
        <path fill="#2FB8B3" d="M13.89.9a2.003 2.003 0 0 1 2.825 0l.003.004v-.01l3.695 3.682-.002.002a3.051 3.051 0 0 1 .746 2.92h.002l-1.216 4.523a.598.598 0 0 1-.155.28.598.598 0 0 1-.844 0 .592.592 0 0 1-.183-.482l-.003.001a3.676 3.676 0 0 0-1.059-3.024l-2.857-2.847-1.269-1.264a2.446 2.446 0 0 1 0-3.47L13.89.9M26.279 8.039a1.989 1.989 0 0 1 1.409 2.443l.008-.005-1.353 5.03-.002-.002a3.064 3.064 0 0 1-2.164 2.103v.003l-4.54 1.21a.587.587 0 0 1-.32.008.594.594 0 0 1-.422-.728.592.592 0 0 1 .327-.4l-.004-.001a3.681 3.681 0 0 0 2.101-2.426l1.046-3.89.464-1.726a2.463 2.463 0 0 1 3.015-1.735l.435.116M26.266 22.298a1.989 1.989 0 0 1-1.412 2.437h-.006l.01.006-5.049 1.347v-.003a3.075 3.075 0 0 1-2.91-.816l-.002.001-3.323-3.31a.579.579 0 0 1-.166-.274.595.595 0 0 1 .42-.729.603.603 0 0 1 .512.083v-.003c.876.644 2.026.9 3.16.6l3.902-1.043 1.733-.463a2.463 2.463 0 0 1 3.015 1.735l.116.432M13.868 29.418a2.003 2.003 0 0 1-2.825 0c-.001-.003-.002-.004-.004-.005v.01l-3.695-3.682.003-.003a3.049 3.049 0 0 1-.745-2.919H6.6l1.217-4.524a.585.585 0 0 1 .154-.28.598.598 0 0 1 .843 0 .593.593 0 0 1 .184.482L9 18.496a3.676 3.676 0 0 0 1.059 3.024l2.857 2.848 1.269 1.264a2.448 2.448 0 0 1 0 3.47l-.317.316"/>
        <g transform="translate(0 11.143)">
            <mask id="b" fill="#fff">
                <use xlink:href="#a"/>
            </mask>
            <path fill="#2FB8B3" d="M1.48 11.135A1.988 1.988 0 0 1 .07 8.698c0-.002 0-.004.002-.006l-.01.005 1.353-5.029.003.001a3.065 3.065 0 0 1 2.165-2.103v-.003L8.12.351a.595.595 0 0 1 .744.72.596.596 0 0 1-.329.4l.003.003A3.679 3.679 0 0 0 6.44 3.9L5.395 7.789l-.465 1.727a2.463 2.463 0 0 1-3.014 1.735l-.435-.116" mask="url(#b)"/>
        </g>
        <path fill="#2FB8B3" d="M1.492 8.018a1.987 1.987 0 0 1 1.412-2.436h.004l-.007-.006 5.047-1.348.002.003a3.08 3.08 0 0 1 2.91.817l.002-.002 3.323 3.311a.587.587 0 0 1 .165.273.594.594 0 0 1-.42.729.601.601 0 0 1-.512-.082v.003a3.703 3.703 0 0 0-3.158-.6L6.357 9.723l-1.733.463A2.462 2.462 0 0 1 1.609 8.45a34.26 34.26 0 0 1-.117-.433"/>
        <path fill="#313131" d="M41.146 23.647c-2.094 0-3.746-.624-4.956-1.87a1.067 1.067 0 0 1-.294-.727c0-.073.007-.146.024-.22.065-.366.27-.66.614-.88l.22-.153c.262-.147.524-.22.785-.22.082 0 .172.007.27.022.36.058.687.22.981.484a2.936 2.936 0 0 0 1.914.681c.834 0 1.455-.234 1.864-.703.409-.47.614-1.262.614-2.376V7.96c0-.351.143-.656.429-.912a1.474 1.474 0 0 1 1.018-.386h.834c.393 0 .732.129 1.019.386.285.256.429.56.429.912v9.988c0 .807-.12 1.548-.356 2.222a5.643 5.643 0 0 1-1.03 1.805c-.45.527-1.052.938-1.803 1.232-.753.293-1.612.44-2.576.44M54.682 23.339c-.392 0-.732-.129-1.018-.385-.286-.257-.429-.561-.429-.913V7.96c0-.352.143-.657.43-.914a1.474 1.474 0 0 1 1.017-.385h.834c.393 0 .732.129 1.018.385.286.257.43.562.43.914v14.08c0 .352-.144.656-.43.913a1.476 1.476 0 0 1-1.018.385h-.834zM67.483 19.18c.818 1.056 1.918 1.584 3.3 1.584 1.381 0 2.481-.528 3.3-1.584.817-1.056 1.226-2.471 1.226-4.245 0-1.775-.409-3.172-1.227-4.192-.818-1.019-1.921-1.529-3.312-1.529-1.39 0-2.49.51-3.299 1.53-.81 1.019-1.214 2.416-1.214 4.19 0 1.775.408 3.19 1.226 4.246m9.31 2.112c-1.53 1.57-3.537 2.355-6.023 2.355-2.486 0-4.493-.785-6.022-2.355-1.53-1.569-2.294-3.688-2.294-6.357 0-2.67.76-4.767 2.282-6.293 1.52-1.525 3.532-2.288 6.034-2.288 2.503 0 4.514.763 6.035 2.288 1.521 1.526 2.282 3.623 2.282 6.293 0 2.669-.765 4.788-2.294 6.357M91.74 23.647c-4.824 0-7.236-2.604-7.236-7.81V7.96c0-.351.142-.656.429-.912a1.474 1.474 0 0 1 1.018-.386h.834c.393 0 .732.129 1.018.386.286.256.43.56.43.912v8.162c0 1.672.298 2.864.895 3.575.597.712 1.468 1.067 2.613 1.067 1.177 0 2.073-.359 2.686-1.077.613-.72.92-1.907.92-3.565V7.96c0-.351.143-.656.429-.912a1.475 1.475 0 0 1 1.018-.386h.687c.392 0 .732.129 1.018.386.286.256.43.56.43.912v7.876c0 2.699-.614 4.676-1.84 5.93-1.227 1.254-3.01 1.88-5.348 1.88M106.7 23.339c-.392 0-.732-.129-1.018-.385-.286-.257-.43-.561-.43-.913V7.96c0-.352.144-.657.43-.914a1.475 1.475 0 0 1 1.018-.385h.834c.393 0 .732.129 1.018.385.286.257.43.562.43.914v5.895c0 .03.012.045.036.045a.088.088 0 0 0 .062-.022l5.25-6.182c.588-.69 1.365-1.035 2.33-1.035h1.202c.295 0 .507.118.638.352a.711.711 0 0 1 .074.308.533.533 0 0 1-.172.375l-4.66 5.39c-.083.088-.091.183-.025.286l5.838 8.844a.635.635 0 0 1 .147.374.642.642 0 0 1-.123.373.798.798 0 0 1-.711.375h-1.202c-.458 0-.88-.1-1.263-.297a2.37 2.37 0 0 1-.92-.825l-3.975-6.204c-.065-.103-.139-.11-.22-.023l-2.208 2.53a.502.502 0 0 0-.098.309v3.212c0 .352-.144.656-.43.913a1.475 1.475 0 0 1-1.018.385h-.834zM128.455 19.18c.818 1.056 1.918 1.584 3.3 1.584s2.481-.528 3.3-1.584c.817-1.056 1.226-2.471 1.226-4.245 0-1.775-.409-3.172-1.227-4.192-.818-1.019-1.921-1.529-3.311-1.529s-2.49.51-3.3 1.53c-.81 1.019-1.214 2.416-1.214 4.19 0 1.775.408 3.19 1.226 4.246m9.31 2.112c-1.529 1.57-3.537 2.355-6.022 2.355-2.486 0-4.494-.785-6.023-2.355-1.53-1.569-2.294-3.688-2.294-6.357 0-2.67.76-4.767 2.282-6.293 1.52-1.525 3.532-2.288 6.035-2.288 2.502 0 4.514.763 6.034 2.288 1.521 1.526 2.282 3.623 2.282 6.293 0 2.669-.765 4.788-2.294 6.357M152.713 23.647c-4.825 0-7.237-2.604-7.237-7.81V7.96c0-.351.143-.656.429-.912a1.475 1.475 0 0 1 1.018-.386h.834c.393 0 .732.129 1.018.386.286.256.43.56.43.912v8.162c0 1.672.298 2.864.895 3.575.597.712 1.468 1.067 2.613 1.067 1.177 0 2.073-.359 2.686-1.077.613-.72.92-1.907.92-3.565V7.96c0-.351.143-.656.43-.912a1.474 1.474 0 0 1 1.017-.386h.687c.393 0 .732.129 1.018.386.286.256.43.56.43.912v7.876c0 2.699-.614 4.676-1.84 5.93-1.227 1.254-3.01 1.88-5.348 1.88"/>
        <path fill="#2FB8B3" d="M169 10V4h1.722c.664 0 1.172.114 1.527.34.354.228.531.555.531.982 0 .727-.454 1.244-1.363 1.552 1.085.3 1.628.842 1.628 1.626 0 .486-.18.858-.538 1.115-.36.257-.876.385-1.552.385H169zm.933-.636h.192c.691 0 1.138-.04 1.341-.118.389-.149.583-.424.583-.827 0-.357-.176-.653-.529-.89-.353-.236-.794-.355-1.323-.355h-.264v2.19zm0-2.729h.3c.502 0 .892-.097 1.168-.292.277-.194.415-.469.415-.823 0-.589-.505-.884-1.516-.884h-.367v2zM174.982 10V4h3.708v.636h-2.766v1.926h2.318v.629h-2.318v2.173h2.959V10h-3.901zm7.402 0V4.636h-2.354V4h5.65v.636h-2.354V10h-.942zm7.603-2.295l-1.13-2.586-1.135 2.586h2.265zm.995 2.295l-.722-1.662h-2.811L186.718 10h-.875l2.633-6h.932L192 10h-1.018z"/>
        <path fill="#2FB8B3" fill-rule="nonzero" d="M193.282 12.14c.477 0 .864-.389.864-.868V1.728c0-.48-.387-.869-.864-.869H166.72a.867.867 0 0 0-.865.87v9.543c0 .48.387.869.865.869h26.563zm0 .86H166.72A1.724 1.724 0 0 1 165 11.272V1.728c0-.954.77-1.728 1.719-1.728h26.563c.949 0 1.718.774 1.718 1.728v9.544c0 .954-.77 1.728-1.718 1.728z"/>
    </g>
</svg>
