<?xml version="1.0" encoding="UTF-8"?>
<svg width="26px" height="21px" viewBox="0 0 26 21" version="1.1" xmlns="http://www.w3.org/2000/svg" xmlns:xlink="http://www.w3.org/1999/xlink">
    <!-- Generator: Sketch 50.1 (55044) - http://www.bohemiancoding.com/sketch -->
    <title>social-iconsmall_Medium_normal</title>
    <desc>Created with Sketch.</desc>
    <defs></defs>
    <g id="Page-1" stroke="none" stroke-width="1" fill="none" fill-rule="evenodd">
        <g id="Desktop-HD" transform="translate(-250.000000, -527.000000)" fill="#AAAAAA" fill-rule="nonzero">
            <g id="small_Medium_normal" transform="translate(250.000000, 527.000000)">
                <path d="M3.08309991,4.28395061 C3.11540292,3.95923847 2.9936916,3.63829664 2.75536882,3.41975308 L0.327731092,0.444444444 L0.327731092,0 L7.86554622,0 L13.6918768,12.9999999 L18.8141924,0 L26,0 L26,0.444444444 L23.9243698,2.4691358 C23.7454277,2.60790675 23.6566633,2.83598664 23.6937442,3.0617284 L23.6937442,17.9382717 C23.6566633,18.1640134 23.7454277,18.3920932 23.9243698,18.5308642 L25.9514473,20.5555556 L25.9514473,21 L15.7553689,21 L15.7553689,20.5555556 L17.8552755,18.4814815 C18.0616246,18.2716049 18.0616246,18.2098766 18.0616246,17.888889 L18.0616246,5.86419754 L12.2231559,20.9506173 L11.4341737,20.9506173 L4.63678804,5.86419754 L4.63678804,15.9753086 C4.58011391,16.4004082 4.71888487,16.8283904 5.01307189,17.1358025 L7.74416433,20.5061729 L7.74416433,20.9506173 L0,20.9506173 L0,20.5061729 L2.73109244,17.1358025 C3.02313752,16.8278807 3.15381663,16.3970595 3.08309991,15.9753086 L3.08309991,4.28395061 Z" id="Shape"></path>
            </g>
        </g>
    </g>
</svg>