<?xml version="1.0" encoding="UTF-8"?>
<svg width="26px" height="21px" viewBox="0 0 26 21" version="1.1" xmlns="http://www.w3.org/2000/svg" xmlns:xlink="http://www.w3.org/1999/xlink">
    <!-- Generator: Sketch 50.1 (55044) - http://www.bohemiancoding.com/sketch -->
    <title>social-iconsmall_Twitter_normal</title>
    <desc>Created with Sketch.</desc>
    <defs></defs>
    <g id="Page-1" stroke="none" stroke-width="1" fill="none" fill-rule="evenodd">
        <g id="Desktop-HD" transform="translate(-308.000000, -527.000000)" fill="#AAAAAA">
            <g id="small_Twitter_normal" transform="translate(308.000000, 527.000000)">
                <path d="M2.96072878,12.7288299 C3.2650476,12.7835251 3.57855266,12.8120879 3.89879093,12.8120879 C4.46260682,12.8120879 5.00555136,12.72355 5.51423411,12.5597412 C3.02061806,12.1694035 1.11394027,10.0302451 1.11394027,7.44985867 C1.11394027,7.40983887 1.11439889,7.36992521 1.11531122,7.33012255 C1.85365815,7.74552867 2.70423436,7.9877726 3.61078538,8.00111789 C2.11310313,7.09164207 1.11394027,5.45491464 1.11394027,3.58696899 C1.11394027,2.61713387 1.38328199,1.70962764 1.85189584,0.933874664 C4.50719789,4.08040703 8.40277108,6.1641258 12.7938936,6.4471704 C12.7134503,6.08126282 12.6710705,5.70127166 12.6710705,5.31147331 C12.6710705,2.37802746 15.0711991,0 18.0319081,0 C19.5786971,0 20.9724802,0.649064159 21.9509456,1.68729643 C23.1650203,1.49621114 24.2934056,1.05024964 25.2784914,0.406491656 C24.9151082,1.6356804 24.0881306,2.6686351 22.9978396,3.30691985 C24.0650838,3.20858114 25.0734039,2.92138043 26,2.49029122 C25.3362056,3.56663748 24.4445446,4.48999593 23.3914718,5.19452359 C23.3923195,5.23340536 23.3927456,5.27239004 23.3927456,5.31147331 C23.3927456,5.41511123 23.3904906,5.81685882 23.3904906,5.91623388 C23.3904906,14.202266 16.6109066,20.9194215 8.2478651,20.9194215 C5.20567082,20.9194215 2.37300924,20.0305668 0,18.5006738 C0.421785599,18.5491672 0.85082379,18.5740956 1.28573844,18.5740956 C3.80495188,18.5740956 6.12699668,17.7376902 7.98442329,16.3298663 C5.60629257,16.3300768 3.63236458,14.8173344 2.96072878,12.7288299 Z" id="Twitter-logo"></path>
            </g>
        </g>
    </g>
</svg>