<?xml version="1.0" encoding="UTF-8"?>
<svg width="23px" height="23px" viewBox="0 0 23 23" version="1.1" xmlns="http://www.w3.org/2000/svg" xmlns:xlink="http://www.w3.org/1999/xlink">
    <!-- Generator: Sketch 50.1 (55044) - http://www.bohemiancoding.com/sketch -->
    <title>social-iconsmall_LinkedIn_normal</title>
    <desc>Created with Sketch.</desc>
    <defs></defs>
    <g id="Page-1" stroke="none" stroke-width="1" fill="none" fill-rule="evenodd">
        <g id="Desktop-HD" transform="translate(-422.000000, -524.000000)" fill="#AAAAAA">
            <g id="small_LinkedIn_normal" transform="translate(422.000000, 524.000000)">
                <path d="M2.86987434,0 C4.45257109,0 5.73913043,1.2406169 5.73913043,2.76977709 C5.73913043,4.29714878 4.45257109,5.53776568 2.86987434,5.53776568 C1.2828499,5.53776568 0,4.29714878 0,2.76977709 C0,1.2406169 1.2828499,0 2.86987434,0 Z M0.393201223,23 L5.34654745,23 L5.34654745,7.63685848 L0.393201223,7.63685848 L0.393201223,23 Z" id="Fill-6"></path>
                <path d="M8,8.03767655 L12.4126832,8.03767655 L12.4126832,10.0837467 L12.4758692,10.0837467 C13.0899226,8.90684994 14.5908782,7.66666667 16.8288128,7.66666667 C21.4879215,7.66666667 22.3478261,10.7648024 22.3478261,14.7936562 L22.3478261,23 L17.7490313,23 L17.7490313,15.723213 C17.7490313,13.9877693 17.7185871,11.7559039 15.3583014,11.7559039 C12.964125,11.7559039 12.5987948,13.6475318 12.5987948,15.5989625 L12.5987948,23 L8,23 L8,8.03767655" id="Fill-7"></path>
            </g>
        </g>
    </g>
</svg>